<?xml version="1.0" encoding="UTF-8" standalone="no"?>
<svg width="12px" height="12px" viewBox="0 0 12 12" version="1.1" xmlns="http://www.w3.org/2000/svg" xmlns:xlink="http://www.w3.org/1999/xlink" xmlns:sketch="http://www.bohemiancoding.com/sketch/ns">
    <title>Checkbox</title>
    <defs></defs>
    <g id="Page-1" stroke="none" stroke-width="1" fill="none" fill-rule="evenodd" sketch:type="MSPage">
        <g id="Checkbox" sketch:type="MSArtboardGroup" fill="#dedede">
            <g id="box" sketch:type="MSLayerGroup">
                <g id="Page-1" sketch:type="MSShapeGroup">
                    <g id="Box">
                        <path d="M0,2.99715203 C0,1.34187067 1.34162278,0 2.99715203,0 L9.00284797,0 C10.6581293,0 12,1.34162278 12,2.99715203 L12,9.00284797 C12,10.6581293 10.6583772,12 9.00284797,12 L2.99715203,12 C1.34187067,12 0,10.6583772 0,9.00284797 L0,2.99715203 L0,2.99715203 Z M1,2.99961498 C1,1.89525812 1.88743329,1 2.99961498,1 L9.00038502,1 C10.1047419,1 11,1.88743329 11,2.99961498 L11,9.00038502 C11,10.1047419 10.1125667,11 9.00038502,11 L2.99961498,11 C1.89525812,11 1,10.1125667 1,9.00038502 L1,2.99961498 L1,2.99961498 Z" id="Rectangle-1"></path>
                    </g>
                </g>
            </g>
        </g>
    </g>
</svg>
