<svg version="1.1"
  xmlns="http://www.w3.org/2000/svg"
  xmlns:xlink="http://www.w3.org/1999/xlink" x="0px" y="0px" viewBox="0 0 12 12">
  <path style="fill:#495057" d="M10,1c0.6,0,1,0.4,1,1v8c0,0.6-0.4,1-1,1H2c-0.6,0-1-0.4-1-1V2c0-0.6,0.4-1,1-1H10 M10,0H2C0.9,0,0,0.9,0,2v8c0,1.1,0.9,2,2,2h8c1.1,0,2-0.9,2-2V2C12,0.9,11.1,0,10,0L10,0z"/>
  <path style="fill:#495057" d="M5.1,9.4c-0.2,0-0.4-0.1-0.5-0.2L2,6.7C1.7,6.4,1.7,5.9,2,5.6s0.8-0.3,1.1,0l2,2l3.8-4.7c0.3-0.3,0.7-0.4,1.1-0.1C10.2,3,10.3,3.4,10,3.8L5.7,9.2C5.6,9.3,5.4,9.4,5.1,9.4C5.2,9.4,5.2,9.4,5.1,9.4z"/>
</svg>
