<?xml version="1.0" encoding="utf-8"?>
<!-- Generator: Adobe Illustrator 24.1.0, SVG Export Plug-In . SVG Version: 6.00 Build 0)  -->
<svg version="1.1" id="Ebene_1" xmlns:sketch="http://www.bohemiancoding.com/sketch/ns"
	 xmlns="http://www.w3.org/2000/svg" xmlns:xlink="http://www.w3.org/1999/xlink" x="0px" y="0px" viewBox="0 0 12 12"
	 style="enable-background:new 0 0 12 12;" xml:space="preserve">
<style type="text/css">
	.st0{fill-rule:evenodd;clip-rule:evenodd;fill:#E9ECEF;}
</style>
<g id="Page-1" sketch:type="MSPage">
	<g id="Checked-Checkbox" sketch:type="MSArtboardGroup">
		<g id="Check" sketch:type="MSLayerGroup">
			<path id="Shape" sketch:type="MSShapeGroup" class="st0" d="M5.4,7.6l3.2-4.6c0.2-0.3,0.6-0.4,0.9-0.2c0.3,0.2,0.3,0.6,0.2,0.9
				L6,8.9C5.9,9.1,5.7,9.2,5.5,9.2C5.3,9.2,5.1,9.2,5,9L2.8,6.8c-0.2-0.2-0.2-0.6,0-0.9c0.2-0.2,0.6-0.2,0.9,0L5.4,7.6L5.4,7.6z"/>
			<g id="Box" sketch:type="MSShapeGroup">
				<path id="Rectangle-1" class="st0" d="M0,3c0-1.7,1.3-3,3-3h6c1.7,0,3,1.3,3,3v6c0,1.7-1.3,3-3,3H3c-1.7,0-3-1.3-3-3V3L0,3z
					 M1,3c0-1.1,0.9-2,2-2h6c1.1,0,2,0.9,2,2v6c0,1.1-0.9,2-2,2H3c-1.1,0-2-0.9-2-2V3L1,3z"/>
			</g>
		</g>
	</g>
</g>
</svg>
